<svg id="Layer_1" enable-background="new 0 0 500 500" viewBox="0 0 500 500" xmlns="http://www.w3.org/2000/svg"><g><path d="m250 443.003c-2.933 0-5.73-1.511-7.314-4.108-2.099-3.412-53.068-83.786-172.676-66.285-2.451.349-4.957-.367-6.839-1.997-1.882-1.628-2.964-3.992-2.964-6.48v-295.889c0-4.225 3.079-7.818 7.252-8.465 131.338-20.33 189.397 77.822 189.968 78.815.745 1.298 1.138 2.768 1.138 4.266v291.578c0 3.839-2.555 7.207-6.252 8.247-.765.215-1.544.318-2.313.318zm-147.495-89.954c71.917 0 117.028 34.643 138.93 57.44v-265.215c-8.161-12.796-57.938-82.633-164.097-69.575v278.718c8.722-.934 17.12-1.368 25.167-1.368z"/><path d="m33.565 443.003c-1.385 0-2.774-.335-4.043-1.016-2.783-1.489-4.522-4.391-4.522-7.55v-294.608c0-2.864 1.431-5.538 3.814-7.127 11.736-7.824 24.032-14.544 36.552-19.97 2.651-1.14 5.694-.883 8.108.7 2.412 1.583 3.864 4.274 3.864 7.16v233.825c124.208-13.295 179.418 74.647 179.976 75.562 2.16 3.543 1.469 8.128-1.643 10.877-3.109 2.752-7.742 2.868-10.997.29-3.838-3.025-95.542-73.465-206.357.419-1.433.956-3.09 1.438-4.752 1.438zm8.566-298.535v274.558c66.294-38.335 126.327-30.099 165.669-15.959-27.596-20.351-72.45-40.017-137.79-30.456-2.451.349-4.957-.367-6.839-1.997-1.882-1.628-2.964-3.992-2.964-6.48v-230.03c-6.128 3.135-12.17 6.597-18.076 10.364z"/><path d="m250 442.994c-.775 0-1.556-.106-2.328-.323-3.686-1.046-6.237-4.403-6.237-8.233v-291.578c0-1.498.393-2.968 1.137-4.266.572-.996 58.612-99.19 189.966-78.815 4.175.647 7.253 4.24 7.253 8.465v295.89c0 2.488-1.081 4.852-2.964 6.48-1.882 1.629-4.385 2.345-6.839 1.997-119.593-17.463-170.57 62.875-172.684 66.301-1.588 2.58-4.382 4.082-7.304 4.082zm8.565-297.683v265.181c24.35-25.345 77.427-65.352 164.094-56.075v-278.715c-105.284-12.877-156.058 57.299-164.094 69.609z"/><path d="m466.435 443.003c-1.663 0-3.318-.482-4.751-1.439-110.824-73.878-202.519-3.441-206.369-.41-3.262 2.564-7.891 2.434-10.991-.313-3.104-2.749-3.795-7.322-1.637-10.863.558-.914 55.795-88.851 179.973-75.562v-233.823c0-2.886 1.453-5.577 3.864-7.16 2.417-1.583 5.454-1.841 8.109-.7 12.525 5.43 24.823 12.149 36.554 19.97 2.383 1.589 3.814 4.263 3.814 7.127v294.609c0 3.159-1.741 6.061-4.522 7.55-1.271.679-2.659 1.014-4.044 1.014zm-107.869-51.742c29.797 0 63.636 7.141 99.303 27.765v-274.558c-5.906-3.767-11.948-7.229-18.079-10.364v230.03c0 2.488-1.081 4.852-2.964 6.48-1.882 1.629-4.385 2.345-6.839 1.997-64.06-9.357-108.807 9.921-136.657 30.058 17.98-6.35 40.172-11.408 65.236-11.408z"/></g></svg>