<svg id="Layer_1" enable-background="new 0 0 100 100" viewBox="0 0 100 100" xmlns="http://www.w3.org/2000/svg"><path d="m10.3240509 55.112854-.0001221-.0010376-.0003051-.0022583z"/><path d="m14.9599762 30.5545044.0003662-.0006104.0002441-.0004882z"/><path d="m57.2199783 12c-9.0250587.0012178-16.3387375 7.3148956-16.3399544 16.3400116v33.1470222c.0012169 5.0375404 4.0823784 9.1187553 9.119976 9.119976 5.0375977-.0012207 9.1187592-4.0824356 9.119976-9.119976v-25.9270439c0-1.0493279-.8506165-1.9000015-1.8999977-1.9000015-1.0493279 0-1.9000015.8506737-1.9000015 1.9000015v25.9270439c-.000927 1.4750977-.5924759 2.7930565-1.5581894 3.7617912-.968727.9657136-2.2866896 1.5572587-3.7617873 1.5581818-1.4750977-.0009232-2.7930603-.5924683-3.7617874-1.5581818-.9657135-.9687347-1.5572624-2.2866936-1.5581894-3.7617912v-33.1470222c.000927-3.4688568 1.400589-6.5918427 3.6728439-8.8671112 2.2753258-2.2723122 5.3982544-3.6719723 8.8671112-3.6729002 3.4688568.0009279 6.5918427 1.400588 8.8671646 3.6729002 2.2722549 2.2752686 3.6719208 5.3982544 3.6728439 8.8671112v36.0999985c-.0009232 5.4625626-2.2087631 10.3905716-5.7875519 13.972435-3.5818671 3.5787964-8.5098189 5.7865677-13.9724349 5.7875518-5.462616-.0009232-10.3905678-2.2087555-13.972435-5.7875519-3.5787926-3.5818634-5.7866249-8.5098724-5.7875538-13.972435v-29.2049026c0-1.0493851-.8506737-1.9000015-1.8999996-1.9000015s-1.8999996.8506165-1.8999996 1.9000015v29.2049026c.0012169 13.0125809 10.5474109 23.5587159 23.559988 23.55999 13.0125771-.0012207 23.5587692-10.5474091 23.5599899-23.5599899v-36.0999985c-.0012207-9.025116-7.3148956-16.3387938-16.3400116-16.3400116z"/></svg>