<svg id="Layer_1" enable-background="new 0 0 491.5 491.5" height="512" viewBox="0 0 491.5 491.5" width="512" xmlns="http://www.w3.org/2000/svg"><g clip-rule="evenodd" fill-rule="evenodd"><path d="m93.3 175c-5.8 0-10.5 4.7-10.5 10.5v120.4c0 5.8 4.7 10.5 10.5 10.5s10.5-4.7 10.5-10.5v-120.4c0-5.7-4.7-10.5-10.5-10.5z"/><path d="m42.4 199.1c-5.8 0-10.5 4.7-10.5 10.5v72.2c0 5.8 4.7 10.5 10.5 10.5 6 0 10.5-7.5 10.5-12.9v-69.8c.1-5.7-4.7-10.5-10.5-10.5z"/><path d="m449.1 199.1c-5.8 0-10.5 4.7-10.5 10.5v72.2c0 5.8 4.7 10.5 10.5 10.5s10.5-4.7 10.5-10.5v-72.2c0-5.7-4.7-10.5-10.5-10.5z"/><path d="m398.2 175c-5.8 0-10.5 4.7-10.5 10.5v120.4c0 5.8 4.7 10.5 10.5 10.5s10.5-4.7 10.5-10.5v-120.4c.1-5.7-4.7-10.5-10.5-10.5z"/><path d="m347.4 110c-5.8 0-10.5 4.7-10.5 10.5v250.5c0 5.8 4.7 10.5 10.5 10.5s10.5-4.7 10.5-10.5v-250.5c0-5.8-4.7-10.5-10.5-10.5z"/><path d="m296.6 146.1c-5.8 0-10.5 4.7-10.5 10.5v178.2c0 5.8 4.7 10.5 10.5 10.5s10.5-4.7 10.5-10.5v-178.2c0-5.7-4.7-10.5-10.5-10.5z"/><path d="m245.8 88.3c-5.8 0-10.5 4.7-10.5 10.5v293.8c0 5.8 4.7 10.5 10.5 10.5s10.5-4.7 10.5-10.5v-293.8c0-5.8-4.7-10.5-10.5-10.5z"/><path d="m194.9 146.1c-5.8 0-10.5 4.7-10.5 10.5v178.2c0 5.8 4.7 10.5 10.5 10.5s10.5-4.7 10.5-10.5v-178.1c0-5.8-4.7-10.6-10.5-10.6z"/><path d="m144.1 110c-5.8 0-10.5 4.7-10.5 10.5v250.5c0 5.8 4.7 10.5 10.5 10.5s10.5-4.7 10.5-10.5v-250.5c0-5.8-4.7-10.5-10.5-10.5z"/></g></svg>